<svg xmlns="http://www.w3.org/2000/svg" version="1.1" xmlns:xlink="http://www.w3.org/1999/xlink" xmlns:svgjs="http://svgjs.dev/svgjs" width="1000" height="1000" viewBox="0 0 1000 1000"><rect width="1000" height="1000" fill="#000000"></rect><g transform="matrix(0.7,0,0,0.7,150.0000000000001,106.25)"><svg viewBox="0 0 320 360" data-background-color="#000000" preserveAspectRatio="xMidYMid meet" height="1125" width="1000" xmlns="http://www.w3.org/2000/svg" xmlns:xlink="http://www.w3.org/1999/xlink"><g id="tight-bounds" transform="matrix(1,0,0,1,0,0)"><svg viewBox="0 0 320 360" height="360" width="320"><g><svg></svg></g><g><svg viewBox="0 0 320 360" height="360" width="320"><g><path xmlns="http://www.w3.org/2000/svg" d="M20.961 227.22l3.726 4.658-1.863-6.056c-0.466-2.795-3.726 0.466-1.863 1.398M25.153 224.425c1.397 2.329 2.795 4.658 2.795 6.987 0 3.261 2.795 4.658 5.123 5.589-3.261-3.726-5.124-13.974-7.918-12.576M204.017 26.929c7.918 0 15.371-0.932 23.756 0.931 20.495 5.124 37.729 15.371 49.374 29.811l32.606 52.169c1.397 13.042 4.192 27.482 3.726 43.319 3.261 0 2.795-4.658 6.521-5.59-3.726 9.316-5.59 20.961-6.521 34.469-2.329-7.453 0-18.632 0.466-24.687-3.261 5.124-5.124 1.397-5.124-0.932 0.466-3.726-1.397-3.261-2.795-4.658-5.124-4.658-8.384-9.782-12.11-17.7 2.329-6.055 2.795-14.905-4.658-19.563-2.329-1.397-5.124-3.726-6.521-7.453-1.863-5.124-5.124-11.179-4.193-19.097 0.466-2.329-6.987 5.124-11.179 1.863-18.166-12.576-36.332-27.016-58.224-39.127-11.645 0-20.029-4.192-24.221-9.316-3.726-4.658-0.932-10.713 4.658-11.179 3.261 0 6.987-0.932 9.782 0.932 0.466-1.863 2.329-4.192 4.657-4.192M157.904 16.215l0.932 0.466c4.658 0.932 6.987 7.453 12.11 5.124 0 3.261 0.466 6.521-0.466 8.85-1.397 3.726-5.59 3.726-8.85 3.726-31.208-1.863-49.374 11.179-68.471 22.358-5.124 3.261-10.713 5.59-14.906 9.782-20.029 18.632-41.921 35.866-47.045 70.335l-4.192 38.195c-0.466 4.192-5.124 8.384-4.192 13.508l3.26 22.824c-3.261-3.261-5.124 0.932-4.192 2.795 0.466 1.397 2.329 6.055 5.124 1.863 3.726 6.987 7.453 20.495 12.576 26.55 15.837 18.632 36.332 35.4 53.101 52.169 4.192-0.932 7.453-0.932 8.384-3.727 1.397 2.795-1.397 5.59-3.726 6.056 7.453 4.658 15.837 8.85 27.016 9.781 14.44 0.932 27.948 3.261 40.524 6.522 6.521-1.863 13.042-2.795 20.029-3.261 2.329 0 3.726-3.726 6.521-4.658l0.466-4.658c2.795 4.192 2.329-1.397 0.466-4.192 3.261 2.795 4.192 5.124 5.589 6.987 0-1.397 3.726-6.521 3.727-0.466l0.931-6.055c1.397-0.932 1.863 5.124 3.261 0.931 1.397-4.192 4.192-0.932 6.987-2.329-0.932 1.863-0.466 5.59 2.794 3.261l3.727-3.261c2.329 5.59 6.055 3.261 7.918 2.329 20.495-13.042 40.99-28.413 60.553-43.784l-0.466 6.055 2.329-7.453c2.329 2.329 4.192 0.466 5.124-0.931 2.795-4.658 6.521-9.316 12.577-13.508-7.453 20.029-16.303 35.866-27.482 48.908l-4.658 5.59c0 3.261-0.932 7.453-4.658 7.918-1.863 0.466-5.59-0.932-8.384 1.863-1.397 1.863 3.261 5.59-0.466 2.795-3.261-2.329-6.521 0-10.248 0.932-2.795 0.932 1.863 3.726 2.795 5.589 0.932 1.863 1.863 3.726 1.398 6.056l-5.124-5.59c-6.055 3.261-9.782 9.316-14.906 13.974-2.329 1.863-1.397 5.124-1.397 7.918-3.261 0-6.987-0.932-8.85 0.932-1.397 1.863-0.932 4.658-0.932 7.453-4.658-0.466-5.124-7.453-9.315-6.056-4.192 0.932-8.85 1.397-12.577 3.727 2.795 5.59-4.658 2.329-3.726 3.26-6.987-4.192-13.042-7.453-20.495-4.658-15.837-5.124-35.4-2.795-49.84-0.931 0-2.329 0.466-4.658-0.466-5.124-0.932 2.329-3.726 1.397-3.26 1.397-8.85-6.055-17.7-9.782-27.016-14.905-8.384 0.932-16.303-3.261-18.632-5.59-6.521-6.055-13.974-2.795-20.029-4.192-13.042-3.261-17.7-16.769-19.098-26.084-0.932-4.658-4.658-6.521-6.055-6.056-6.055-19.563-15.371-37.263-22.824-55.429-1.863-4.658-1.397-9.316-1.397-14.44 2.329 0.932 4.658 0.466 4.192-2.794-2.329-15.371-7.918-27.016-13.974-38.195 3.261-15.837 3.726-34.469 11.179-48.443 6.521-12.576 18.632-19.098 27.016-29.811 2.795-3.726 2.795-8.85 5.59-12.11 9.316-9.316 18.632-19.098 28.879-27.482 4.658-3.726 10.247 0 17.234-1.397 2.329-8.384 11.645-15.837 20.495-13.508 3.726 0.932 11.179-8.85 13.508-9.782 3.726-1.397 1.863 3.726 1.863 6.987 8.85-6.987 20.961-10.713 32.14-14.906" fill="#ffffff" fill-rule="nonzero" stroke="none" stroke-width="1" stroke-linecap="butt" stroke-linejoin="miter" stroke-miterlimit="10" stroke-dasharray="" stroke-dashoffset="0" font-family="none" font-weight="none" font-size="none" text-anchor="none" style="mix-blend-mode: normal" data-fill-palette-color="tertiary"></path></g><g transform="matrix(1,0,0,1,70.01158174969471,90)"><svg viewBox="0 0 179.97683650061057 180" height="180" width="179.97683650061057"><g><svg viewBox="0 0 179.97683650061057 180" height="180" width="179.97683650061057"><g><svg viewBox="0 0 192 192.02471091263322" height="180" width="179.97683650061057"><g transform="matrix(1,0,0,1,0,98.54341669263341)"><svg viewBox="0 0 192 93.4812942199998" height="93.4812942199998" width="192"><g id="textblocktransform"><svg viewBox="0 0 192 93.4812942199998" height="93.4812942199998" width="192" id="textblock"><g><svg viewBox="0 0 192 53.579731743666166" height="53.579731743666166" width="192"><g transform="matrix(1,0,0,1,0,0)"><svg width="192" viewBox="2.799999952316284 -37.150001525878906 134.19000244140625 37.45000076293945" height="53.579731743666166" data-palette-color="#ffffff"><path d="M14.3 0.3L14.3 0.3Q13.1 0.3 11.58 0.23 10.05 0.15 8.47 0 6.9-0.15 5.48-0.3 4.05-0.45 3.05-0.7L3.05-0.7 3.05-4.6Q4.35-4.5 6.18-4.4 8-4.3 10.08-4.25 12.15-4.2 14.1-4.2L14.1-4.2Q16.25-4.2 17.93-4.6 19.6-5 20.58-6.1 21.55-7.2 21.55-9.2L21.55-9.2 21.55-11.35Q21.55-13.6 20.33-14.8 19.1-16 16.6-16L16.6-16 12.85-16Q8.05-16 5.43-18.1 2.8-20.2 2.8-25.3L2.8-25.3 2.8-27.3Q2.8-32.6 5.68-34.88 8.55-37.15 13.85-37.15L13.85-37.15Q15.6-37.15 17.6-36.98 19.6-36.8 21.5-36.55 23.4-36.3 24.65-36.05L24.65-36.05 24.65-32.15Q22.4-32.3 19.63-32.48 16.85-32.65 14.4-32.65L14.4-32.65Q12.3-32.65 10.78-32.18 9.25-31.7 8.43-30.5 7.6-29.3 7.6-27.1L7.6-27.1 7.6-25.6Q7.6-22.9 9.05-21.85 10.5-20.8 13.1-20.8L13.1-20.8 17.15-20.8Q20.3-20.8 22.33-19.65 24.35-18.5 25.35-16.5 26.35-14.5 26.35-11.95L26.35-11.95 26.35-9.35Q26.35-5.45 24.75-3.35 23.15-1.25 20.45-0.48 17.75 0.3 14.3 0.3ZM46.35 0.3L46.35 0.3Q42.75 0.3 40.02-0.4 37.3-1.1 35.47-3 33.65-4.9 32.75-8.6 31.85-12.3 31.85-18.3L31.85-18.3Q31.85-24.3 32.75-28.03 33.65-31.75 35.5-33.73 37.35-35.7 40.05-36.43 42.75-37.15 46.35-37.15L46.35-37.15Q50.05-37.15 52.77-36.43 55.5-35.7 57.3-33.73 59.1-31.75 60-28.03 60.9-24.3 60.9-18.3L60.9-18.3Q60.9-12.3 60-8.6 59.1-4.9 57.27-3 55.45-1.1 52.72-0.4 50 0.3 46.35 0.3ZM46.35-4.2L46.35-4.2Q48.95-4.2 50.77-4.75 52.6-5.3 53.72-6.78 54.85-8.25 55.35-11.03 55.85-13.8 55.85-18.3L55.85-18.3Q55.85-23.05 55.32-25.9 54.8-28.75 53.7-30.2 52.6-31.65 50.77-32.15 48.95-32.65 46.35-32.65L46.35-32.65Q43.9-32.65 42.1-32.15 40.3-31.65 39.15-30.2 38-28.75 37.42-25.9 36.85-23.05 36.85-18.3L36.85-18.3Q36.85-13.8 37.32-11.03 37.8-8.25 38.92-6.78 40.05-5.3 41.87-4.75 43.7-4.2 46.35-4.2ZM72.3 0L67.25 0 67.25-29.15Q67.25-31.35 67.92-32.85 68.59-34.35 69.69-35.23 70.8-36.1 72.17-36.48 73.55-36.85 74.89-36.85L74.89-36.85Q76.94-36.8 79.55-36.77 82.14-36.75 84.97-36.65 87.8-36.55 90.44-36.3L90.44-36.3 90.44-32.2 76.14-32.2Q74.3-32.2 73.3-31.2 72.3-30.2 72.3-28.3L72.3-28.3 72.3-19.75 88.19-19.45 88.19-15.55 72.3-15.25 72.3 0ZM100.89 0L95.84 0 95.84-36.85 100.89-36.85 100.89 0ZM111.19 0L105.99 0 118.29-36.85 124.69-36.85 136.99 0 131.74 0 128.49-9.65 114.39-9.65 111.19 0ZM121.44-32.45L115.59-14.2 127.24-14.2 121.44-32.45Z" opacity="1" transform="matrix(1,0,0,1,0,0)" fill="#ffffff" class="wordmark-text-0" data-fill-palette-color="primary" id="text-0"></path></svg></g></svg></g><g transform="matrix(1,0,0,1,0,61.39830051862891)"><svg viewBox="0 0 192 32.08299370137088" height="32.08299370137088" width="192"><g transform="matrix(1,0,0,1,0,0)"><svg width="192" viewBox="2.5 -35 269.8800048828125 45.099998474121094" height="32.08299370137088" data-palette-color="#ffffff"><path d="M12-24.95L12-24.95Q13.6-24.95 15.4-24.85 17.2-24.75 18.98-24.6 20.75-24.45 22.25-24.2L22.25-24.2 21.9-21.1Q19.6-21.2 17.28-21.28 14.95-21.35 12.65-21.35L12.65-21.35Q10.4-21.4 9.1-21.25 7.8-21.1 7.23-20.45 6.65-19.8 6.65-18.25L6.65-18.25Q6.65-16.35 7.55-15.75 8.45-15.15 10.2-14.75L10.2-14.75 17.3-13.15Q20.2-12.45 21.58-11 22.95-9.55 22.95-6.45L22.95-6.45Q22.95-3.45 21.83-1.95 20.7-0.45 18.4 0.05 16.1 0.55 12.55 0.55L12.55 0.55Q11.25 0.55 8.68 0.45 6.1 0.35 3-0.15L3-0.15 3.3-3.25Q4.5-3.2 5.85-3.13 7.2-3.05 8.68-3.05 10.15-3.05 11.7-3.05L11.7-3.05Q14.45-3.05 16-3.3 17.55-3.55 18.2-4.28 18.85-5 18.85-6.45L18.85-6.45Q18.85-8.25 17.8-8.85 16.75-9.45 15-9.85L15-9.85 8-11.45Q6-11.95 4.8-12.78 3.6-13.6 3.05-14.93 2.5-16.25 2.5-18.25L2.5-18.25Q2.5-21.1 3.5-22.55 4.5-24 6.6-24.5 8.7-25 12-24.95ZM43.25-24.95L43.25-24.95Q47.7-24.95 49.65-21.68 51.6-18.4 51.6-12.05L51.6-12.05Q51.6-7.35 50.6-4.58 49.6-1.8 47.57-0.6 45.55 0.6 42.4 0.6L42.4 0.6Q40 0.6 37.67-0.05 35.35-0.7 33.15-2.05L33.15-2.05 33.4-4.6Q35.75-3.95 37.55-3.53 39.35-3.1 41.35-3.1L41.35-3.1Q43.5-3.1 44.77-3.85 46.05-4.6 46.65-6.55 47.25-8.5 47.25-12.05L47.25-12.05Q47.25-15.5 46.7-17.5 46.15-19.5 44.97-20.38 43.8-21.25 41.85-21.25L41.85-21.25Q39.85-21.25 37.9-20.3 35.95-19.35 33.35-17.4L33.35-17.4 32.95-20.25Q34.3-21.7 36-22.75 37.7-23.8 39.57-24.38 41.45-24.95 43.25-24.95ZM29.3-24.35L32.8-24.35 33.25-19.3 33.55-18.65 33.55-3.05 33.35-2.45Q33.5-1.05 33.52 0.25 33.55 1.55 33.55 3L33.55 3 33.55 10.05 29.3 10.05 29.3-24.35ZM69.8-24.95L69.8-24.95Q72.5-24.95 74.37-24.23 76.25-23.5 77.2-21.8 78.15-20.1 78.15-17.15L78.15-17.15 78.15 0 74.8 0 74.15-5.3 73.84-5.85 73.84-17.15Q73.84-19.4 72.82-20.38 71.8-21.35 68.9-21.35L68.9-21.35Q67-21.35 64.12-21.15 61.25-20.95 58.45-20.7L58.45-20.7 58.05-23.85Q59.75-24.15 61.77-24.4 63.8-24.65 65.9-24.8 68-24.95 69.8-24.95ZM63.7-15L76.15-15 76.09-11.8 64.45-11.75Q62.7-11.7 62-10.83 61.3-9.95 61.3-8.4L61.3-8.4 61.3-6.85Q61.3-4.95 62.2-4.08 63.1-3.2 65.09-3.2L65.09-3.2Q66.5-3.2 68.27-3.73 70.05-4.25 71.84-5.35 73.65-6.45 75.15-8.15L75.15-8.15 75.15-5Q74.59-4.3 73.57-3.38 72.55-2.45 71.12-1.58 69.7-0.7 67.97-0.13 66.25 0.45 64.25 0.45L64.25 0.45Q62.1 0.45 60.45-0.33 58.8-1.1 57.87-2.63 56.95-4.15 56.95-6.35L56.95-6.35 56.95-9Q56.95-11.85 58.72-13.43 60.5-15 63.7-15L63.7-15ZM96.14-24.95L96.14-24.95Q97.24-24.95 98.59-24.85 99.94-24.75 101.37-24.5 102.79-24.25 103.99-23.8L103.99-23.8 103.44-21.05Q101.79-21.2 99.97-21.28 98.14-21.35 96.84-21.35L96.84-21.35Q93.94-21.35 92.24-20.55 90.54-19.75 89.79-17.75 89.04-15.75 89.04-12.2L89.04-12.2Q89.04-8.65 89.79-6.63 90.54-4.6 92.24-3.8 93.94-3 96.84-3L96.84-3Q97.59-3 98.79-3.05 99.99-3.1 101.37-3.2 102.74-3.3 103.99-3.5L103.99-3.5 104.44-0.65Q102.59 0 100.42 0.3 98.24 0.6 96.09 0.6L96.09 0.6Q91.89 0.6 89.34-0.65 86.79-1.9 85.67-4.7 84.54-7.5 84.54-12.2L84.54-12.2Q84.54-16.9 85.69-19.7 86.84-22.5 89.39-23.73 91.94-24.95 96.14-24.95ZM119.79-24.95L119.79-24.95Q125.29-24.95 127.77-22.95 130.24-20.95 130.24-17L130.24-17Q130.29-13.75 128.89-11.93 127.49-10.1 124.44-10.1L124.44-10.1 110.24-10.1 110.24-13.4 123.34-13.4Q124.99-13.4 125.49-14.53 125.99-15.65 125.99-17L125.99-17Q125.94-19.35 124.59-20.35 123.24-21.35 119.99-21.35L119.99-21.35Q117.34-21.35 115.81-20.58 114.29-19.8 113.67-17.88 113.04-15.95 113.04-12.5L113.04-12.5Q113.04-8.6 113.81-6.55 114.59-4.5 116.29-3.75 117.99-3 120.79-3L120.79-3Q122.74-3 125.06-3.18 127.39-3.35 129.24-3.6L129.24-3.6 129.69-0.75Q128.54-0.3 126.87 0 125.19 0.3 123.42 0.45 121.64 0.6 120.24 0.6L120.24 0.6Q116.04 0.6 113.49-0.68 110.94-1.95 109.77-4.78 108.59-7.6 108.59-12.25L108.59-12.25Q108.59-17.05 109.77-19.83 110.94-22.6 113.42-23.78 115.89-24.95 119.79-24.95ZM157.44-24.95L157.44-24.95Q161.34-24.95 163.61-24.15 165.89-23.35 166.86-21.65 167.84-19.95 167.84-17.2L167.84-17.2Q167.84-14.55 166.86-12.83 165.89-11.1 163.59-10.28 161.29-9.45 157.39-9.45L157.39-9.45Q153.49-9.45 151.21-10.28 148.94-11.1 147.96-12.8 146.99-14.5 146.99-17.15L146.99-17.15Q146.99-19.9 147.96-21.63 148.94-23.35 151.24-24.15 153.54-24.95 157.44-24.95ZM157.39-21.7L157.39-21.7Q153.74-21.7 152.31-20.68 150.89-19.65 150.89-17.2L150.89-17.2Q150.89-14.8 152.31-13.75 153.74-12.7 157.39-12.7L157.39-12.7Q161.09-12.7 162.49-13.75 163.89-14.8 163.89-17.2L163.89-17.2Q163.89-19.65 162.49-20.68 161.09-21.7 157.39-21.7ZM162.49-24.35L170.69-24.35 170.44-22 164.24-21.5 162.49-24.35ZM150.54-11.05L150.54-11.05 152.99-10.7Q152.14-9.95 151.84-8.88 151.54-7.8 152.01-6.9 152.49-6 154.04-5.75L154.04-5.75 163.14-4.3Q166.59-3.8 167.94-2.15 169.29-0.5 169.29 2.55L169.29 2.55Q169.29 5.4 168.21 7.05 167.14 8.7 164.59 9.4 162.04 10.1 157.69 10.1L157.69 10.1Q154.39 10.1 152.14 9.73 149.89 9.35 148.51 8.47 147.14 7.6 146.54 6.2 145.94 4.8 145.94 2.7L145.94 2.7Q145.94 1.1 146.41 0.03 146.89-1.05 147.91-1.9 148.94-2.75 150.59-3.55L150.59-3.55 153.59-5.2 155.54-4.5 153.09-2.65Q152.09-1.9 151.41-1.18 150.74-0.45 150.41 0.38 150.09 1.2 150.09 2.35L150.09 2.35Q150.09 4.05 150.74 4.95 151.39 5.85 153.04 6.18 154.69 6.5 157.64 6.5L157.64 6.5Q160.59 6.5 162.21 6.15 163.84 5.8 164.49 4.9 165.14 4 165.14 2.35L165.14 2.35Q165.14 1.1 164.81 0.45 164.49-0.2 163.59-0.55 162.69-0.9 160.94-1.15L160.94-1.15 152.19-2.35Q150.64-2.55 149.71-3.35 148.79-4.15 148.44-5.25 148.09-6.35 148.24-7.48 148.39-8.6 148.99-9.58 149.59-10.55 150.54-11.05ZM190.48-24.95L190.48-24.95Q197.08-24.95 197.08-18.25L197.08-18.25 197.08 0 192.78 0 192.78-17.05Q192.78-19.5 192.01-20.43 191.23-21.35 189.33-21.35L189.33-21.35Q187.08-21.35 184.83-20.3 182.58-19.25 179.48-17.25L179.48-17.25 179.28-20.3Q182.13-22.45 184.93-23.7 187.73-24.95 190.48-24.95ZM175.68-35L179.93-35 179.98-25.35Q179.98-23.7 179.86-22.25 179.73-20.8 179.48-19.7L179.48-19.7 179.93-18.95 179.93 0 175.68 0 175.68-35ZM215.03-24.95L215.03-24.95Q219.23-24.95 221.76-23.7 224.28-22.45 225.38-19.63 226.48-16.8 226.48-12.15L226.48-12.15Q226.48-7.5 225.38-4.67 224.28-1.85 221.76-0.6 219.23 0.65 215.03 0.65L215.03 0.65Q210.88 0.65 208.36-0.6 205.83-1.85 204.71-4.67 203.58-7.5 203.58-12.15L203.58-12.15Q203.58-16.8 204.71-19.63 205.83-22.45 208.36-23.7 210.88-24.95 215.03-24.95ZM215.03-21.35L215.03-21.35Q212.38-21.35 210.86-20.53 209.33-19.7 208.68-17.7 208.03-15.7 208.03-12.15L208.03-12.15Q208.03-8.6 208.68-6.6 209.33-4.6 210.86-3.78 212.38-2.95 215.03-2.95L215.03-2.95Q217.68-2.95 219.23-3.78 220.78-4.6 221.43-6.6 222.08-8.6 222.08-12.15L222.08-12.15Q222.08-15.7 221.43-17.7 220.78-19.7 219.23-20.53 217.68-21.35 215.03-21.35ZM241.23-24.95L241.23-24.95Q242.83-24.95 244.63-24.85 246.43-24.75 248.2-24.6 249.98-24.45 251.48-24.2L251.48-24.2 251.13-21.1Q248.83-21.2 246.5-21.28 244.18-21.35 241.88-21.35L241.88-21.35Q239.63-21.4 238.33-21.25 237.03-21.1 236.45-20.45 235.88-19.8 235.88-18.25L235.88-18.25Q235.88-16.35 236.78-15.75 237.68-15.15 239.43-14.75L239.43-14.75 246.53-13.15Q249.43-12.45 250.8-11 252.18-9.55 252.18-6.45L252.18-6.45Q252.18-3.45 251.05-1.95 249.93-0.45 247.63 0.05 245.33 0.55 241.78 0.55L241.78 0.55Q240.48 0.55 237.9 0.45 235.33 0.35 232.23-0.15L232.23-0.15 232.53-3.25Q233.73-3.2 235.08-3.13 236.43-3.05 237.9-3.05 239.38-3.05 240.93-3.05L240.93-3.05Q243.68-3.05 245.23-3.3 246.78-3.55 247.43-4.28 248.08-5 248.08-6.45L248.08-6.45Q248.08-8.25 247.03-8.85 245.98-9.45 244.23-9.85L244.23-9.85 237.23-11.45Q235.23-11.95 234.03-12.78 232.83-13.6 232.28-14.93 231.73-16.25 231.73-18.25L231.73-18.25Q231.73-21.1 232.73-22.55 233.73-24 235.83-24.5 237.93-25 241.23-24.95ZM260.38-31.55L264.63-31.55 264.63-6.7Q264.63-4.95 265.38-4.2 266.13-3.45 267.93-3.45L267.93-3.45 271.63-3.45 272.13-0.2Q271.33 0 270.28 0.15 269.23 0.3 268.23 0.38 267.23 0.45 266.63 0.45L266.63 0.45Q263.58 0.45 261.98-1.25 260.38-2.95 260.38-6.15L260.38-6.15 260.38-31.55ZM260.78-24.35L272.38-24.35 272.38-21 255.98-21 255.98-24.1 260.78-24.35Z" opacity="1" transform="matrix(1,0,0,1,0,0)" fill="#ffffff" class="slogan-text-1" data-fill-palette-color="secondary" id="text-1"></path></svg></g></svg></g></svg></g></svg></g><g transform="matrix(1,0,0,1,51.504,0)"><svg viewBox="0 0 88.992 90.72484791767067" height="90.72484791767067" width="88.992"><g><svg version="1.1" xmlns="http://www.w3.org/2000/svg" xmlns:xlink="http://www.w3.org/1999/xlink" x="0" y="0" viewBox="0 0 98.08999633789062 100" enable-background="new 0 0 98.09 100" xml:space="preserve" width="88.992" height="90.72484791767067" class="icon-icon-0" data-fill-palette-color="accent" id="icon-0"><path d="M65.407 80.003C43.315 80.003 25.413 62.09 25.413 40c0-19.454 13.893-35.629 32.292-39.226C55.177 0.378 52.641 0 49.997 0 22.381 0 0 22.388 0 50.002 0 77.611 22.381 100 49.997 100 73.1 100 92.355 84.25 98.09 62.951 90.852 73.238 78.936 80.003 65.407 80.003z" fill="#ffffff" data-fill-palette-color="accent"></path></svg></g></svg></g><g></g></svg></g></svg></g></svg></g></svg></g><defs></defs></svg><rect width="320" height="360" fill="none" stroke="none" visibility="hidden"></rect></g></svg></g></svg>